<svg xmlns="http://www.w3.org/2000/svg" viewBox="0 0 32 32" fill="none">
  <rect width="32" height="32" rx="6" fill="#0a0505"/>
  <defs>
    <clipPath id="fc">
      <path d="M 8 5 Q 6 7 6 11 Q 6 17 9 21 Q 11 24 13 26 L 14 27 L 18 27 L 19 26 Q 21 24 23 21 Q 26 17 26 11 Q 26 7 24 5 Z"/>
    </clipPath>
  </defs>
  <rect x="6" y="14" width="20" height="14" fill="#722F37" clip-path="url(#fc)"/>
  <path d="M 8 5 Q 6 7 6 11 Q 6 17 9 21 Q 11 24 13 26 L 14 27 L 18 27 L 19 26 Q 21 24 23 21 Q 26 17 26 11 Q 26 7 24 5" stroke="#C5A55A" stroke-width="1" fill="none"/>
  <path d="M 8 5 Q 16 3.5 24 5" stroke="#C5A55A" stroke-width="1" fill="none"/>
  <line x1="16" y1="27" x2="16" y2="30" stroke="#C5A55A" stroke-width="0.8"/>
  <line x1="12" y1="30" x2="20" y2="30" stroke="#C5A55A" stroke-width="0.8"/>
</svg>
